<?xml version="1.0" encoding="utf-8"?>
<!-- Generator: Adobe Illustrator 19.2.1, SVG Export Plug-In . SVG Version: 6.00 Build 0)  -->
<svg version="1.1" xmlns="http://www.w3.org/2000/svg" xmlns:xlink="http://www.w3.org/1999/xlink" x="0px" y="0px"
	 viewBox="0 0 70.8 81.7" style="enable-background:new 0 0 70.8 81.7;" xml:space="preserve">
<style type="text/css">
	.st0{enable-background:new    ;}
	.st1{fill-rule:evenodd;clip-rule:evenodd;fill:#F7F6F4;}
	.st2{fill:#053385;}
	.st3{fill:#199DDB;}
	.st4{opacity:0.1216;}
	.st5{fill-rule:evenodd;clip-rule:evenodd;fill:#FFFFFF;}
	.st6{fill:#046D8B;}
	.st7{fill:#F7FAF2;}
	.st8{fill:#FFFFFF;}
	.st9{fill-rule:evenodd;clip-rule:evenodd;fill:#4361C3;}
	.st10{fill:#FF9900;}
	.st11{fill:#CC0000;}
	.st12{fill:#FCB340;}
	.st13{fill:#000066;}
	.st14{fill-rule:evenodd;clip-rule:evenodd;fill:#F9F9F9;}
	.st15{fill-rule:evenodd;clip-rule:evenodd;fill:#09599E;}
	.st16{fill-rule:evenodd;clip-rule:evenodd;fill:#E59703;}
	.st17{fill:#09599E;}
	.st18{fill:#F79510;}
	.st19{fill:#2B3894;}
	.st20{opacity:0.5;fill:#1B325C;}
	.st21{fill:#2FB8AC;}
</style>
<g id="Background_xA0_Image_1_">
</g>
<g id="Cards_1_" class="st0">
	<g id="Row_4_1_">
		<g id="Direct_Debit_1_">
			<g id="Background_60_">
			</g>
			<g id="Logo_2_">
			</g>
			<g id="Shadow_xA0_Image_39_">
			</g>
		</g>
		<g id="Wallet_1_">
			<g id="Background_59_">
			</g>
			<g id="Logo_46_">
				<g id="Logo_xA0_Image_3_">
				</g>
			</g>
			<g id="Shadow_xA0_Image_37_">
			</g>
		</g>
		<g id="Reverse_1_">
			<g id="Background_58_">
			</g>
			<g id="Logo_45_">
			</g>
			<g id="Shadow_xA0_Image_35_">
			</g>
		</g>
		<g id="Android_Pay_1_">
			<g id="Background_57_">
			</g>
			<g id="Logo_44_">
			</g>
			<g id="Shadow_xA0_Image_33_">
			</g>
		</g>
		<g id="Contactless_1_">
			<g id="Background_56_">
			</g>
			<g id="Logo_43_">
			</g>
			<g id="Shadow_xA0_Image_31_">
			</g>
		</g>
	</g>
	<g id="Row_3_1_">
		<g id="Square_1_">
			<g id="Background_55_">
			</g>
			<g id="Logo_42_">
			</g>
			<g id="Shadow_xA0_Image_29_">
			</g>
		</g>
		<g id="Stripe_1_">
			<g id="Background_54_">
			</g>
			<g id="Logo_41_">
			</g>
			<g id="Shadow_xA0_Image_27_">
			</g>
		</g>
		<g id="JCB_1_">
			<g id="Background_53_">
			</g>
			<g id="Logo_40_">
			</g>
			<g id="Shadow_xA0_Image_25_">
			</g>
		</g>
		<g id="Sagepay_1_">
			<g id="Background_52_">
			</g>
			<g id="Logo_39_">
			</g>
			<g id="Shadow_xA0_Image_23_">
			</g>
		</g>
		<g id="Citi_1_">
			<g id="Background_51_">
			</g>
			<g id="Logo_38_">
			</g>
			<g id="Shadow_xA0_Image_21_">
			</g>
		</g>
	</g>
	<g id="Row_2_1_">
		<g id="Maestro_1_">
			<g id="Background_50_">
			</g>
			<g id="Logo_37_">
			</g>
			<g id="Shadow_xA0_Image_19_">
			</g>
		</g>
		<g id="PayPal_1_">
			<g id="Background_49_">
			</g>
			<g id="Logo_36_">
			</g>
			<g id="Shadow_xA0_Image_17_">
			</g>
		</g>
		<g id="Amazon_Payments_1_">
			<g id="Background_48_">
			</g>
			<g id="Logo_35_">
			</g>
			<g id="Shadow_xA0_Image_15_">
			</g>
		</g>
		<g id="Apple_Pay_1_">
			<g id="Background_47_">
			</g>
			<g id="Logo_34_">
			</g>
			<g id="Shadow_xA0_Image_13_">
			</g>
		</g>
		<g id="Amex_1_">
			<g id="Background_46_">
			</g>
			<g id="Logo_33_">
			</g>
			<g id="Shadow_xA0_Image_11_">
			</g>
		</g>
	</g>
	<g id="Row_1_1_">
		<g id="Bitcoin_3_">
			<g id="Background_45_">
			</g>
			<g id="Logo_32_">
			</g>
			<g id="Shadow_xA0_Image_9_">
			</g>
		</g>
		<g id="Diners_Club_2_">
			<g id="Background_44_">
			</g>
			<g id="Logo_31_">
			</g>
			<g id="Shadow_xA0_Image_7_">
			</g>
		</g>
		<g id="Discover_2_">
			<g id="Background_43_">
			</g>
			<g id="Logo_30_">
			</g>
			<g id="Shadow_xA0_Image_5_">
			</g>
		</g>
		<g id="Mastercard_1_">
			<g id="Background_42_">
			</g>
			<g id="Logo_27_">
			</g>
			<g id="Shadow_xA0_Image_3_">
			</g>
		</g>
		<g id="Visa_1_">
			<g id="Background_41_">
			</g>
			<g id="Logo_29_">
				<g id="Logo_xA0_Image_1_">
				</g>
			</g>
			<g id="Shadow_xA0_Image_1_">
			</g>
		</g>
	</g>
</g>
<g id="Layer_1">
	<g>
		<path class="st6" d="M58.3,72.1c0,0-4.3,7.2-22.4,7.2s-22.6-7.2-22.6-7.2v-68h45V72.1z"/>
		<g>
			<g>
				<path class="st20" d="M37.7,44.6v6.3C45,49.7,50.6,43.6,51,36.1c-2.3,0.3-4.4,1-6.3,2.1c-2.1-1.2-4.4-1.9-6.9-2.2V44.6z"/>
				<path class="st20" d="M33.5,50.9v-6.3v-8.4c-2.2,0.3-4.2,1-6,2.1c-2.3-1.3-4.9-2.1-7.7-2.2C20.1,43.8,26,50,33.5,50.9z"/>
				<path class="st21" d="M33.5,55.1c-9.5-0.9-17-8.8-17.4-18.4h0v-0.4C8,37.6,1.9,44.6,1.9,53.1c0,9.4,7.7,17.1,17.1,17.1
					c3.1,0,6-0.8,8.6-2.3c1.8,1,3.8,1.8,6,2.1V55.1z"/>
				<path class="st21" d="M54.7,36.1v0.6h0C54.3,46.2,47,53.9,37.7,55v15.1c2.5-0.2,4.8-1,6.9-2.2c2.5,1.5,5.4,2.3,8.6,2.3
					c4.7,0,8.9-1.9,12-4.9c1.7-1.6,1.2-5.1,2.1-7.3c0.8-2,3-2.6,3-4.9C70.3,44.2,63.5,36.8,54.7,36.1z"/>
			</g>
			<path class="st8" d="M71.2,44.4V0H0.5v46.3c0,19.5,15.8,35.4,35.4,35.4s35.4-15.8,35.4-35.4C71.2,45.7,71.2,45.1,71.2,44.4z
				 M35.8,77.9C20,77.9,6.9,66.3,4.6,51.1c3,4.7,8.3,7.8,14.4,7.8c3.1,0,6-0.8,8.6-2.3c1.8,1,3.8,1.8,6,2.1v-3.6
				c-9.5-0.9-17-8.8-17.4-18.4h0v-6.5h-3.2l5.2-12.8L23,30.1h-3.2v5.3c0,8,6,14.6,13.8,15.5v-6.3V22.7h-5.1L35.6,5l6.7,17.7h-4.6
				v21.9v6.3C45.3,49.7,51,43.2,51,35.4v-5.3h-3.1l5.2-12.8l4.8,12.8h-3.2v6.5h0C54.3,46.2,47,53.9,37.7,55v3.8
				c2.5-0.2,4.8-1,6.9-2.2c2.5,1.5,5.4,2.3,8.6,2.3c5.6,0,10.6-2.7,13.7-6.9C64.2,66.7,51.4,77.9,35.8,77.9z"/>
		</g>
	</g>
</g>
</svg>
