<?xml version="1.0" encoding="utf-8"?>
<!-- Generator: Adobe Illustrator 19.2.1, SVG Export Plug-In . SVG Version: 6.00 Build 0)  -->
<svg version="1.1" id="Layer_1" xmlns="http://www.w3.org/2000/svg" xmlns:xlink="http://www.w3.org/1999/xlink" x="0px" y="0px"
	 viewBox="0 0 70.8 81.7" style="enable-background:new 0 0 70.8 81.7;" xml:space="preserve">
<style type="text/css">
	.st0{fill:#2FB8AC;}
	.st1{fill:#FFFFFF;}
</style>
<g id="Layer_1_1_">
	<g>
		<g>
			<g>
				<path class="st0" d="M33,55.1c-9.5-0.9-17-8.8-17.4-18.4l0,0v-0.4C7.5,37.6,1.4,44.6,1.4,53.1c0,9.4,7.7,17.1,17.1,17.1
					c3.1,0,6-0.8,8.6-2.3c1.8,1,3.8,1.8,6,2.1L33,55.1L33,55.1z"/>
				<path class="st0" d="M54.2,36.1v0.6l0,0c-0.4,9.5-7.7,17.2-17,18.3v15.1c2.5-0.2,4.8-1,6.9-2.2c2.5,1.5,5.4,2.3,8.6,2.3
					c4.7,0,8.9-1.9,12-4.9c1.7-1.6,1.2-5.1,2.1-7.3c0.8-2,3-2.6,3-4.9C69.8,44.2,63,36.8,54.2,36.1z"/>
			</g>
			<path class="st1" d="M70.7,44.4V0H0v46.3c0,19.5,15.8,35.4,35.4,35.4s35.4-15.8,35.4-35.4C70.7,45.7,70.7,45.1,70.7,44.4z
				 M35.3,77.9c-15.8,0-28.9-11.6-31.2-26.8c3,4.7,8.3,7.8,14.4,7.8c3.1,0,6-0.8,8.6-2.3c1.8,1,3.8,1.8,6,2.1v-3.6
				c-9.5-0.9-17-8.8-17.4-18.4l0,0v-6.5h-3.2l5.2-12.8l4.8,12.7h-3.2v5.3c0,8,6,14.6,13.8,15.5v-6.3V22.7H28L35.1,5l6.7,17.7h-4.6
				v21.9v6.3c7.6-1.2,13.3-7.7,13.3-15.5v-5.3h-3.1l5.2-12.8l4.8,12.8h-3.2v6.5l0,0c-0.4,9.6-7.7,17.3-17,18.4v3.8
				c2.5-0.2,4.8-1,6.9-2.2c2.5,1.5,5.4,2.3,8.6,2.3c5.6,0,10.6-2.7,13.7-6.9C63.7,66.7,50.9,77.9,35.3,77.9z"/>
		</g>
	</g>
</g>
</svg>
